%TF.GenerationSoftware,KiCad,Pcbnew,8.0.4*%
%TF.CreationDate,2025-04-25T16:49:28-07:00*%
%TF.ProjectId,DalekSoundSystemV2,44616c65-6b53-46f7-956e-645379737465,rev?*%
%TF.SameCoordinates,Original*%
%TF.FileFunction,Legend,Bot*%
%TF.FilePolarity,Positive*%
%FSLAX46Y46*%
G04 Gerber Fmt 4.6, Leading zero omitted, Abs format (unit mm)*
G04 Created by KiCad (PCBNEW 8.0.4) date 2025-04-25 16:49:28*
%MOMM*%
%LPD*%
G01*
G04 APERTURE LIST*
%ADD10C,0.100000*%
%ADD11C,0.508000*%
G04 APERTURE END LIST*
D10*
X172896115Y-85652531D02*
X172896115Y-84652531D01*
X172896115Y-84652531D02*
X172658020Y-84652531D01*
X172658020Y-84652531D02*
X172515163Y-84700150D01*
X172515163Y-84700150D02*
X172419925Y-84795388D01*
X172419925Y-84795388D02*
X172372306Y-84890626D01*
X172372306Y-84890626D02*
X172324687Y-85081102D01*
X172324687Y-85081102D02*
X172324687Y-85223959D01*
X172324687Y-85223959D02*
X172372306Y-85414435D01*
X172372306Y-85414435D02*
X172419925Y-85509673D01*
X172419925Y-85509673D02*
X172515163Y-85604912D01*
X172515163Y-85604912D02*
X172658020Y-85652531D01*
X172658020Y-85652531D02*
X172896115Y-85652531D01*
X171467544Y-85652531D02*
X171467544Y-85128721D01*
X171467544Y-85128721D02*
X171515163Y-85033483D01*
X171515163Y-85033483D02*
X171610401Y-84985864D01*
X171610401Y-84985864D02*
X171800877Y-84985864D01*
X171800877Y-84985864D02*
X171896115Y-85033483D01*
X171467544Y-85604912D02*
X171562782Y-85652531D01*
X171562782Y-85652531D02*
X171800877Y-85652531D01*
X171800877Y-85652531D02*
X171896115Y-85604912D01*
X171896115Y-85604912D02*
X171943734Y-85509673D01*
X171943734Y-85509673D02*
X171943734Y-85414435D01*
X171943734Y-85414435D02*
X171896115Y-85319197D01*
X171896115Y-85319197D02*
X171800877Y-85271578D01*
X171800877Y-85271578D02*
X171562782Y-85271578D01*
X171562782Y-85271578D02*
X171467544Y-85223959D01*
X170848496Y-85652531D02*
X170943734Y-85604912D01*
X170943734Y-85604912D02*
X170991353Y-85509673D01*
X170991353Y-85509673D02*
X170991353Y-84652531D01*
X170086591Y-85604912D02*
X170181829Y-85652531D01*
X170181829Y-85652531D02*
X170372305Y-85652531D01*
X170372305Y-85652531D02*
X170467543Y-85604912D01*
X170467543Y-85604912D02*
X170515162Y-85509673D01*
X170515162Y-85509673D02*
X170515162Y-85128721D01*
X170515162Y-85128721D02*
X170467543Y-85033483D01*
X170467543Y-85033483D02*
X170372305Y-84985864D01*
X170372305Y-84985864D02*
X170181829Y-84985864D01*
X170181829Y-84985864D02*
X170086591Y-85033483D01*
X170086591Y-85033483D02*
X170038972Y-85128721D01*
X170038972Y-85128721D02*
X170038972Y-85223959D01*
X170038972Y-85223959D02*
X170515162Y-85319197D01*
X169610400Y-85652531D02*
X169610400Y-84652531D01*
X169515162Y-85271578D02*
X169229448Y-85652531D01*
X169229448Y-84985864D02*
X169610400Y-85366816D01*
X168086590Y-85604912D02*
X167943733Y-85652531D01*
X167943733Y-85652531D02*
X167705638Y-85652531D01*
X167705638Y-85652531D02*
X167610400Y-85604912D01*
X167610400Y-85604912D02*
X167562781Y-85557292D01*
X167562781Y-85557292D02*
X167515162Y-85462054D01*
X167515162Y-85462054D02*
X167515162Y-85366816D01*
X167515162Y-85366816D02*
X167562781Y-85271578D01*
X167562781Y-85271578D02*
X167610400Y-85223959D01*
X167610400Y-85223959D02*
X167705638Y-85176340D01*
X167705638Y-85176340D02*
X167896114Y-85128721D01*
X167896114Y-85128721D02*
X167991352Y-85081102D01*
X167991352Y-85081102D02*
X168038971Y-85033483D01*
X168038971Y-85033483D02*
X168086590Y-84938245D01*
X168086590Y-84938245D02*
X168086590Y-84843007D01*
X168086590Y-84843007D02*
X168038971Y-84747769D01*
X168038971Y-84747769D02*
X167991352Y-84700150D01*
X167991352Y-84700150D02*
X167896114Y-84652531D01*
X167896114Y-84652531D02*
X167658019Y-84652531D01*
X167658019Y-84652531D02*
X167515162Y-84700150D01*
X166943733Y-85652531D02*
X167038971Y-85604912D01*
X167038971Y-85604912D02*
X167086590Y-85557292D01*
X167086590Y-85557292D02*
X167134209Y-85462054D01*
X167134209Y-85462054D02*
X167134209Y-85176340D01*
X167134209Y-85176340D02*
X167086590Y-85081102D01*
X167086590Y-85081102D02*
X167038971Y-85033483D01*
X167038971Y-85033483D02*
X166943733Y-84985864D01*
X166943733Y-84985864D02*
X166800876Y-84985864D01*
X166800876Y-84985864D02*
X166705638Y-85033483D01*
X166705638Y-85033483D02*
X166658019Y-85081102D01*
X166658019Y-85081102D02*
X166610400Y-85176340D01*
X166610400Y-85176340D02*
X166610400Y-85462054D01*
X166610400Y-85462054D02*
X166658019Y-85557292D01*
X166658019Y-85557292D02*
X166705638Y-85604912D01*
X166705638Y-85604912D02*
X166800876Y-85652531D01*
X166800876Y-85652531D02*
X166943733Y-85652531D01*
X165753257Y-84985864D02*
X165753257Y-85652531D01*
X166181828Y-84985864D02*
X166181828Y-85509673D01*
X166181828Y-85509673D02*
X166134209Y-85604912D01*
X166134209Y-85604912D02*
X166038971Y-85652531D01*
X166038971Y-85652531D02*
X165896114Y-85652531D01*
X165896114Y-85652531D02*
X165800876Y-85604912D01*
X165800876Y-85604912D02*
X165753257Y-85557292D01*
X165277066Y-84985864D02*
X165277066Y-85652531D01*
X165277066Y-85081102D02*
X165229447Y-85033483D01*
X165229447Y-85033483D02*
X165134209Y-84985864D01*
X165134209Y-84985864D02*
X164991352Y-84985864D01*
X164991352Y-84985864D02*
X164896114Y-85033483D01*
X164896114Y-85033483D02*
X164848495Y-85128721D01*
X164848495Y-85128721D02*
X164848495Y-85652531D01*
X163943733Y-85652531D02*
X163943733Y-84652531D01*
X163943733Y-85604912D02*
X164038971Y-85652531D01*
X164038971Y-85652531D02*
X164229447Y-85652531D01*
X164229447Y-85652531D02*
X164324685Y-85604912D01*
X164324685Y-85604912D02*
X164372304Y-85557292D01*
X164372304Y-85557292D02*
X164419923Y-85462054D01*
X164419923Y-85462054D02*
X164419923Y-85176340D01*
X164419923Y-85176340D02*
X164372304Y-85081102D01*
X164372304Y-85081102D02*
X164324685Y-85033483D01*
X164324685Y-85033483D02*
X164229447Y-84985864D01*
X164229447Y-84985864D02*
X164038971Y-84985864D01*
X164038971Y-84985864D02*
X163943733Y-85033483D01*
X162372304Y-85128721D02*
X162229447Y-85176340D01*
X162229447Y-85176340D02*
X162181828Y-85223959D01*
X162181828Y-85223959D02*
X162134209Y-85319197D01*
X162134209Y-85319197D02*
X162134209Y-85462054D01*
X162134209Y-85462054D02*
X162181828Y-85557292D01*
X162181828Y-85557292D02*
X162229447Y-85604912D01*
X162229447Y-85604912D02*
X162324685Y-85652531D01*
X162324685Y-85652531D02*
X162705637Y-85652531D01*
X162705637Y-85652531D02*
X162705637Y-84652531D01*
X162705637Y-84652531D02*
X162372304Y-84652531D01*
X162372304Y-84652531D02*
X162277066Y-84700150D01*
X162277066Y-84700150D02*
X162229447Y-84747769D01*
X162229447Y-84747769D02*
X162181828Y-84843007D01*
X162181828Y-84843007D02*
X162181828Y-84938245D01*
X162181828Y-84938245D02*
X162229447Y-85033483D01*
X162229447Y-85033483D02*
X162277066Y-85081102D01*
X162277066Y-85081102D02*
X162372304Y-85128721D01*
X162372304Y-85128721D02*
X162705637Y-85128721D01*
X161562780Y-85652531D02*
X161658018Y-85604912D01*
X161658018Y-85604912D02*
X161705637Y-85557292D01*
X161705637Y-85557292D02*
X161753256Y-85462054D01*
X161753256Y-85462054D02*
X161753256Y-85176340D01*
X161753256Y-85176340D02*
X161705637Y-85081102D01*
X161705637Y-85081102D02*
X161658018Y-85033483D01*
X161658018Y-85033483D02*
X161562780Y-84985864D01*
X161562780Y-84985864D02*
X161419923Y-84985864D01*
X161419923Y-84985864D02*
X161324685Y-85033483D01*
X161324685Y-85033483D02*
X161277066Y-85081102D01*
X161277066Y-85081102D02*
X161229447Y-85176340D01*
X161229447Y-85176340D02*
X161229447Y-85462054D01*
X161229447Y-85462054D02*
X161277066Y-85557292D01*
X161277066Y-85557292D02*
X161324685Y-85604912D01*
X161324685Y-85604912D02*
X161419923Y-85652531D01*
X161419923Y-85652531D02*
X161562780Y-85652531D01*
X160372304Y-85652531D02*
X160372304Y-85128721D01*
X160372304Y-85128721D02*
X160419923Y-85033483D01*
X160419923Y-85033483D02*
X160515161Y-84985864D01*
X160515161Y-84985864D02*
X160705637Y-84985864D01*
X160705637Y-84985864D02*
X160800875Y-85033483D01*
X160372304Y-85604912D02*
X160467542Y-85652531D01*
X160467542Y-85652531D02*
X160705637Y-85652531D01*
X160705637Y-85652531D02*
X160800875Y-85604912D01*
X160800875Y-85604912D02*
X160848494Y-85509673D01*
X160848494Y-85509673D02*
X160848494Y-85414435D01*
X160848494Y-85414435D02*
X160800875Y-85319197D01*
X160800875Y-85319197D02*
X160705637Y-85271578D01*
X160705637Y-85271578D02*
X160467542Y-85271578D01*
X160467542Y-85271578D02*
X160372304Y-85223959D01*
X159896113Y-85652531D02*
X159896113Y-84985864D01*
X159896113Y-85176340D02*
X159848494Y-85081102D01*
X159848494Y-85081102D02*
X159800875Y-85033483D01*
X159800875Y-85033483D02*
X159705637Y-84985864D01*
X159705637Y-84985864D02*
X159610399Y-84985864D01*
X158848494Y-85652531D02*
X158848494Y-84652531D01*
X158848494Y-85604912D02*
X158943732Y-85652531D01*
X158943732Y-85652531D02*
X159134208Y-85652531D01*
X159134208Y-85652531D02*
X159229446Y-85604912D01*
X159229446Y-85604912D02*
X159277065Y-85557292D01*
X159277065Y-85557292D02*
X159324684Y-85462054D01*
X159324684Y-85462054D02*
X159324684Y-85176340D01*
X159324684Y-85176340D02*
X159277065Y-85081102D01*
X159277065Y-85081102D02*
X159229446Y-85033483D01*
X159229446Y-85033483D02*
X159134208Y-84985864D01*
X159134208Y-84985864D02*
X158943732Y-84985864D01*
X158943732Y-84985864D02*
X158848494Y-85033483D01*
X157753255Y-84652531D02*
X157419922Y-85652531D01*
X157419922Y-85652531D02*
X157086589Y-84652531D01*
X156800874Y-84747769D02*
X156753255Y-84700150D01*
X156753255Y-84700150D02*
X156658017Y-84652531D01*
X156658017Y-84652531D02*
X156419922Y-84652531D01*
X156419922Y-84652531D02*
X156324684Y-84700150D01*
X156324684Y-84700150D02*
X156277065Y-84747769D01*
X156277065Y-84747769D02*
X156229446Y-84843007D01*
X156229446Y-84843007D02*
X156229446Y-84938245D01*
X156229446Y-84938245D02*
X156277065Y-85081102D01*
X156277065Y-85081102D02*
X156848493Y-85652531D01*
X156848493Y-85652531D02*
X156229446Y-85652531D01*
X172562782Y-86738665D02*
X172419925Y-86786284D01*
X172419925Y-86786284D02*
X172372306Y-86833903D01*
X172372306Y-86833903D02*
X172324687Y-86929141D01*
X172324687Y-86929141D02*
X172324687Y-87071998D01*
X172324687Y-87071998D02*
X172372306Y-87167236D01*
X172372306Y-87167236D02*
X172419925Y-87214856D01*
X172419925Y-87214856D02*
X172515163Y-87262475D01*
X172515163Y-87262475D02*
X172896115Y-87262475D01*
X172896115Y-87262475D02*
X172896115Y-86262475D01*
X172896115Y-86262475D02*
X172562782Y-86262475D01*
X172562782Y-86262475D02*
X172467544Y-86310094D01*
X172467544Y-86310094D02*
X172419925Y-86357713D01*
X172419925Y-86357713D02*
X172372306Y-86452951D01*
X172372306Y-86452951D02*
X172372306Y-86548189D01*
X172372306Y-86548189D02*
X172419925Y-86643427D01*
X172419925Y-86643427D02*
X172467544Y-86691046D01*
X172467544Y-86691046D02*
X172562782Y-86738665D01*
X172562782Y-86738665D02*
X172896115Y-86738665D01*
X171991353Y-86595808D02*
X171753258Y-87262475D01*
X171515163Y-86595808D02*
X171753258Y-87262475D01*
X171753258Y-87262475D02*
X171848496Y-87500570D01*
X171848496Y-87500570D02*
X171896115Y-87548189D01*
X171896115Y-87548189D02*
X171991353Y-87595808D01*
X171134210Y-87167236D02*
X171086591Y-87214856D01*
X171086591Y-87214856D02*
X171134210Y-87262475D01*
X171134210Y-87262475D02*
X171181829Y-87214856D01*
X171181829Y-87214856D02*
X171134210Y-87167236D01*
X171134210Y-87167236D02*
X171134210Y-87262475D01*
X171134210Y-86643427D02*
X171086591Y-86691046D01*
X171086591Y-86691046D02*
X171134210Y-86738665D01*
X171134210Y-86738665D02*
X171181829Y-86691046D01*
X171181829Y-86691046D02*
X171134210Y-86643427D01*
X171134210Y-86643427D02*
X171134210Y-86738665D01*
X169896115Y-87262475D02*
X169896115Y-86262475D01*
X169896115Y-86262475D02*
X169324687Y-87262475D01*
X169324687Y-87262475D02*
X169324687Y-86262475D01*
X168848496Y-87262475D02*
X168848496Y-86595808D01*
X168848496Y-86262475D02*
X168896115Y-86310094D01*
X168896115Y-86310094D02*
X168848496Y-86357713D01*
X168848496Y-86357713D02*
X168800877Y-86310094D01*
X168800877Y-86310094D02*
X168848496Y-86262475D01*
X168848496Y-86262475D02*
X168848496Y-86357713D01*
X167943735Y-87214856D02*
X168038973Y-87262475D01*
X168038973Y-87262475D02*
X168229449Y-87262475D01*
X168229449Y-87262475D02*
X168324687Y-87214856D01*
X168324687Y-87214856D02*
X168372306Y-87167236D01*
X168372306Y-87167236D02*
X168419925Y-87071998D01*
X168419925Y-87071998D02*
X168419925Y-86786284D01*
X168419925Y-86786284D02*
X168372306Y-86691046D01*
X168372306Y-86691046D02*
X168324687Y-86643427D01*
X168324687Y-86643427D02*
X168229449Y-86595808D01*
X168229449Y-86595808D02*
X168038973Y-86595808D01*
X168038973Y-86595808D02*
X167943735Y-86643427D01*
X167515163Y-87262475D02*
X167515163Y-86262475D01*
X167419925Y-86881522D02*
X167134211Y-87262475D01*
X167134211Y-86595808D02*
X167515163Y-86976760D01*
X165943734Y-87262475D02*
X165943734Y-86262475D01*
X165943734Y-86262475D02*
X165610401Y-86976760D01*
X165610401Y-86976760D02*
X165277068Y-86262475D01*
X165277068Y-86262475D02*
X165277068Y-87262475D01*
X164372306Y-87262475D02*
X164372306Y-86738665D01*
X164372306Y-86738665D02*
X164419925Y-86643427D01*
X164419925Y-86643427D02*
X164515163Y-86595808D01*
X164515163Y-86595808D02*
X164705639Y-86595808D01*
X164705639Y-86595808D02*
X164800877Y-86643427D01*
X164372306Y-87214856D02*
X164467544Y-87262475D01*
X164467544Y-87262475D02*
X164705639Y-87262475D01*
X164705639Y-87262475D02*
X164800877Y-87214856D01*
X164800877Y-87214856D02*
X164848496Y-87119617D01*
X164848496Y-87119617D02*
X164848496Y-87024379D01*
X164848496Y-87024379D02*
X164800877Y-86929141D01*
X164800877Y-86929141D02*
X164705639Y-86881522D01*
X164705639Y-86881522D02*
X164467544Y-86881522D01*
X164467544Y-86881522D02*
X164372306Y-86833903D01*
X163753258Y-87262475D02*
X163848496Y-87214856D01*
X163848496Y-87214856D02*
X163896115Y-87119617D01*
X163896115Y-87119617D02*
X163896115Y-86262475D01*
X162991353Y-87214856D02*
X163086591Y-87262475D01*
X163086591Y-87262475D02*
X163277067Y-87262475D01*
X163277067Y-87262475D02*
X163372305Y-87214856D01*
X163372305Y-87214856D02*
X163419924Y-87119617D01*
X163419924Y-87119617D02*
X163419924Y-86738665D01*
X163419924Y-86738665D02*
X163372305Y-86643427D01*
X163372305Y-86643427D02*
X163277067Y-86595808D01*
X163277067Y-86595808D02*
X163086591Y-86595808D01*
X163086591Y-86595808D02*
X162991353Y-86643427D01*
X162991353Y-86643427D02*
X162943734Y-86738665D01*
X162943734Y-86738665D02*
X162943734Y-86833903D01*
X162943734Y-86833903D02*
X163419924Y-86929141D01*
X162610400Y-86595808D02*
X162372305Y-87262475D01*
X162134210Y-86595808D02*
X162372305Y-87262475D01*
X162372305Y-87262475D02*
X162467543Y-87500570D01*
X162467543Y-87500570D02*
X162515162Y-87548189D01*
X162515162Y-87548189D02*
X162610400Y-87595808D01*
X172467544Y-88205752D02*
X172467544Y-88872419D01*
X172705639Y-87824800D02*
X172943734Y-88539085D01*
X172943734Y-88539085D02*
X172324687Y-88539085D01*
X171229449Y-87824800D02*
X172086591Y-89110514D01*
X170943734Y-87967657D02*
X170896115Y-87920038D01*
X170896115Y-87920038D02*
X170800877Y-87872419D01*
X170800877Y-87872419D02*
X170562782Y-87872419D01*
X170562782Y-87872419D02*
X170467544Y-87920038D01*
X170467544Y-87920038D02*
X170419925Y-87967657D01*
X170419925Y-87967657D02*
X170372306Y-88062895D01*
X170372306Y-88062895D02*
X170372306Y-88158133D01*
X170372306Y-88158133D02*
X170419925Y-88300990D01*
X170419925Y-88300990D02*
X170991353Y-88872419D01*
X170991353Y-88872419D02*
X170372306Y-88872419D01*
X169515163Y-88205752D02*
X169515163Y-88872419D01*
X169753258Y-87824800D02*
X169991353Y-88539085D01*
X169991353Y-88539085D02*
X169372306Y-88539085D01*
X168277068Y-87824800D02*
X169134210Y-89110514D01*
X167991353Y-87967657D02*
X167943734Y-87920038D01*
X167943734Y-87920038D02*
X167848496Y-87872419D01*
X167848496Y-87872419D02*
X167610401Y-87872419D01*
X167610401Y-87872419D02*
X167515163Y-87920038D01*
X167515163Y-87920038D02*
X167467544Y-87967657D01*
X167467544Y-87967657D02*
X167419925Y-88062895D01*
X167419925Y-88062895D02*
X167419925Y-88158133D01*
X167419925Y-88158133D02*
X167467544Y-88300990D01*
X167467544Y-88300990D02*
X168038972Y-88872419D01*
X168038972Y-88872419D02*
X167419925Y-88872419D01*
X166515163Y-87872419D02*
X166991353Y-87872419D01*
X166991353Y-87872419D02*
X167038972Y-88348609D01*
X167038972Y-88348609D02*
X166991353Y-88300990D01*
X166991353Y-88300990D02*
X166896115Y-88253371D01*
X166896115Y-88253371D02*
X166658020Y-88253371D01*
X166658020Y-88253371D02*
X166562782Y-88300990D01*
X166562782Y-88300990D02*
X166515163Y-88348609D01*
X166515163Y-88348609D02*
X166467544Y-88443847D01*
X166467544Y-88443847D02*
X166467544Y-88681942D01*
X166467544Y-88681942D02*
X166515163Y-88777180D01*
X166515163Y-88777180D02*
X166562782Y-88824800D01*
X166562782Y-88824800D02*
X166658020Y-88872419D01*
X166658020Y-88872419D02*
X166896115Y-88872419D01*
X166896115Y-88872419D02*
X166991353Y-88824800D01*
X166991353Y-88824800D02*
X167038972Y-88777180D01*
D11*
%TO.C,J10*%
X209981000Y-90612000D02*
G75*
G02*
X209219000Y-90612000I-381000J0D01*
G01*
X209219000Y-90612000D02*
G75*
G02*
X209981000Y-90612000I381000J0D01*
G01*
%TO.C,J11*%
X209981000Y-76778201D02*
G75*
G02*
X209219000Y-76778201I-381000J0D01*
G01*
X209219000Y-76778201D02*
G75*
G02*
X209981000Y-76778201I381000J0D01*
G01*
%TO.C,J9*%
X151867599Y-43600000D02*
G75*
G02*
X151105599Y-43600000I-381000J0D01*
G01*
X151105599Y-43600000D02*
G75*
G02*
X151867599Y-43600000I381000J0D01*
G01*
%TO.C,J8*%
X197295800Y-50360001D02*
G75*
G02*
X196533800Y-50360001I-381000J0D01*
G01*
X196533800Y-50360001D02*
G75*
G02*
X197295800Y-50360001I381000J0D01*
G01*
%TD*%
M02*
