M48
; DRILL file {KiCad 8.0.4} date 2025-04-25T16:49:40-0700
; FORMAT={-:-/ absolute / inch / decimal}
; #@! TF.CreationDate,2025-04-25T16:49:40-07:00
; #@! TF.GenerationSoftware,Kicad,Pcbnew,8.0.4
; #@! TF.FileFunction,Plated,1,2,PTH
FMAT,2
INCH
; #@! TA.AperFunction,Plated,PTH,ViaDrill
T1C0.0118
; #@! TA.AperFunction,Plated,PTH,ComponentDrill
T2C0.0295
; #@! TA.AperFunction,Plated,PTH,ComponentDrill
T3C0.0315
; #@! TA.AperFunction,Plated,PTH,ComponentDrill
T4C0.0354
; #@! TA.AperFunction,Plated,PTH,ComponentDrill
T5C0.0362
; #@! TA.AperFunction,Plated,PTH,ComponentDrill
T6C0.0394
; #@! TA.AperFunction,Plated,PTH,ComponentDrill
T7C0.0420
; #@! TA.AperFunction,Plated,PTH,ComponentDrill
T8C0.0433
; #@! TA.AperFunction,Plated,PTH,ComponentDrill
T9C0.0520
; #@! TA.AperFunction,Plated,PTH,ComponentDrill
T10C0.0531
; #@! TA.AperFunction,Plated,PTH,ComponentDrill
T11C0.0917
%
G90
G05
T1
X5.2167Y-3.2246
X5.2696Y-3.2775
X5.437Y-4.0472
X5.437Y-4.0827
X5.5315Y-4.0472
X5.5315Y-4.0827
X5.7304Y-3.2579
X5.8024Y-2.6303
X5.8287Y-3.3562
X5.8456Y-2.2941
X5.9606Y-2.6378
X5.9606Y-2.7918
X5.9921Y-3.2205
X6.0866Y-3.189
X6.0866Y-3.4528
X6.2677Y-3.1417
X6.2795Y-4.3543
X6.3071Y-3.6929
X6.3071Y-3.7559
X6.3348Y-4.0278
X6.3568Y-2.6945
X6.3622Y-3.5669
X6.3877Y-4.0807
X6.3976Y-3.6024
X6.4331Y-2.3701
X6.4375Y-2.3185
X6.449Y-2.6301
X6.451Y-2.7896
X6.4766Y-2.6026
X6.5124Y-3.4892
X6.5943Y-3.5238
X6.6142Y-2.8189
X6.6181Y-3.7717
X6.622Y-3.5748
X6.7634Y-2.9213
X6.7638Y-2.8661
X6.7985Y-3.1228
X6.8086Y-3.2701
X6.811Y-3.5748
X6.8346Y-3.7717
X6.8491Y-2.6444
X6.8642Y-4.1871
X6.8799Y-3.0414
X6.8862Y-2.9213
X6.8862Y-2.9961
X6.9159Y-2.7112
X6.931Y-4.2539
X7.0528Y-2.4508
X7.1496Y-4.1142
X7.1496Y-4.2087
X7.2205Y-3.4134
X7.2205Y-3.4882
X7.2598Y-2.9213
X7.2598Y-3.0157
X7.4396Y-2.9213
X7.4396Y-2.9961
X7.5965Y-3.5373
X7.6063Y-2.4449
X7.6063Y-2.5276
X7.6633Y-3.4705
X7.6693Y-4.2913
X7.6693Y-4.3465
X7.9764Y-2.6531
T2
X7.8661Y-2.4524
X7.8661Y-2.5024
X7.8661Y-2.5524
X7.8661Y-2.6807
X7.8661Y-2.7307
X7.8661Y-2.7807
X7.8677Y-2.224
X7.8677Y-2.274
X7.8677Y-2.324
T3
X5.9414Y-3.5097
X5.9414Y-3.6097
X5.9414Y-3.7097
T4
X5.8685Y-2.0787
X5.9685Y-2.0787
X6.4669Y-2.5433
X6.5669Y-2.5433
T5
X5.6028Y-2.1713
X5.6028Y-2.2697
X5.6815Y-2.1713
X5.6815Y-2.2697
T6
X5.1386Y-2.748
X5.1386Y-2.9528
X5.1386Y-3.1575
X5.1386Y-3.3622
X5.1386Y-3.5669
X5.1386Y-3.7717
X5.2386Y-2.748
X5.2386Y-2.9528
X5.2386Y-3.1575
X5.2386Y-3.3622
X5.2386Y-3.5669
X5.2386Y-3.7717
X5.3386Y-2.748
X5.3386Y-2.9528
X5.3386Y-3.1575
X5.3386Y-3.3622
X5.3386Y-3.5669
X5.3386Y-3.7717
X5.5795Y-3.9843
X5.5795Y-4.2283
X5.6795Y-3.9843
X5.6795Y-4.2283
X5.7795Y-3.9843
X5.7795Y-4.2283
X5.8795Y-3.9843
X5.8795Y-4.2283
X5.8976Y-2.8181
X5.8976Y-2.9181
X5.8976Y-3.0181
X5.8976Y-3.1181
X5.9795Y-3.9843
X5.9795Y-4.2283
X6.0795Y-3.9843
X6.0795Y-4.2283
X6.1575Y-1.5673
X6.1575Y-1.6673
X6.1575Y-1.7673
X6.1575Y-1.8673
X6.1575Y-1.9673
X6.1575Y-2.0673
X6.1575Y-2.1673
X6.1575Y-2.2673
X6.1575Y-2.4882
X6.1575Y-2.5882
X6.1795Y-3.9843
X6.1795Y-4.2283
X6.2795Y-3.9843
X6.2795Y-4.2283
X6.4528Y-3.689
X6.4528Y-3.8858
X6.5049Y-4.1083
X6.5049Y-4.2083
X6.6929Y-4.1102
X6.6929Y-4.2102
X6.7283Y-3.689
X6.7283Y-3.8858
X6.8661Y-1.5642
X6.8661Y-1.6642
X6.8661Y-1.7642
X6.8661Y-1.8642
X6.8661Y-1.9642
X6.8661Y-2.0642
X6.8661Y-2.1642
X6.8661Y-2.2642
X6.9567Y-3.7589
X7.0394Y-2.0339
X7.0394Y-2.1339
X7.0394Y-2.2339
X7.0394Y-2.6195
X7.0394Y-2.7195
X7.0394Y-3.0969
X7.0394Y-3.1969
X7.0394Y-3.2969
X7.0551Y-3.7589
X7.0598Y-1.585
X7.0598Y-1.685
X7.1535Y-3.7589
X7.1598Y-1.585
X7.1598Y-1.685
X7.2598Y-1.585
X7.2598Y-1.685
X7.3598Y-1.585
X7.3598Y-1.685
X7.4598Y-1.585
X7.4598Y-1.685
X7.4961Y-3.5404
X7.4961Y-3.6404
X7.4961Y-3.7404
X7.4961Y-3.8404
X7.4961Y-3.9404
X7.4961Y-4.0404
X7.4961Y-4.1404
X7.4961Y-4.2404
X7.5598Y-1.585
X7.5598Y-1.685
X7.6598Y-1.585
X7.6598Y-1.685
X7.7323Y-3.7402
X7.7323Y-3.8402
X7.7323Y-3.9402
X7.7323Y-4.0402
X7.7598Y-1.585
X7.7598Y-1.685
X7.8598Y-1.585
X7.8598Y-1.685
X7.9598Y-1.585
X7.9598Y-1.685
X7.9843Y-3.5404
X7.9843Y-3.6404
X7.9843Y-3.7404
X7.9843Y-3.8404
X7.9843Y-3.9404
X7.9843Y-4.0404
X7.9843Y-4.1404
X7.9843Y-4.2404
T7
X5.5669Y-1.7165
X5.685Y-1.7165
X5.8031Y-1.7165
X7.9134Y-1.9827
X8.0315Y-1.9827
X8.1496Y-1.9827
X8.252Y-3.1837
X8.252Y-3.3018
X8.252Y-3.7283
X8.252Y-3.8465
X8.2677Y-1.9827
T9
X7.6504Y-3.1654
X7.7504Y-3.1654
X7.8504Y-3.1654
T10
X8.077Y-2.5797
X8.077Y-2.7797
X8.277Y-2.5797
X8.277Y-2.7797
T11
X5.4961Y-1.9835
X5.4961Y-2.4575
T8
G00X6.8661Y-4.0404
M15
G01X6.8661Y-4.0679
M16
G05
G00X7.2441Y-4.0404
M15
G01X7.2441Y-4.0679
M16
G05
M30
