%TF.GenerationSoftware,KiCad,Pcbnew,8.0.4*%
%TF.CreationDate,2025-04-25T16:49:28-07:00*%
%TF.ProjectId,DalekSoundSystemV2,44616c65-6b53-46f7-956e-645379737465,rev?*%
%TF.SameCoordinates,Original*%
%TF.FileFunction,Soldermask,Bot*%
%TF.FilePolarity,Negative*%
%FSLAX46Y46*%
G04 Gerber Fmt 4.6, Leading zero omitted, Abs format (unit mm)*
G04 Created by KiCad (PCBNEW 8.0.4) date 2025-04-25 16:49:28*
%MOMM*%
%LPD*%
G01*
G04 APERTURE LIST*
G04 Aperture macros list*
%AMRoundRect*
0 Rectangle with rounded corners*
0 $1 Rounding radius*
0 $2 $3 $4 $5 $6 $7 $8 $9 X,Y pos of 4 corners*
0 Add a 4 corners polygon primitive as box body*
4,1,4,$2,$3,$4,$5,$6,$7,$8,$9,$2,$3,0*
0 Add four circle primitives for the rounded corners*
1,1,$1+$1,$2,$3*
1,1,$1+$1,$4,$5*
1,1,$1+$1,$6,$7*
1,1,$1+$1,$8,$9*
0 Add four rect primitives between the rounded corners*
20,1,$1+$1,$2,$3,$4,$5,0*
20,1,$1+$1,$4,$5,$6,$7,0*
20,1,$1+$1,$6,$7,$8,$9,0*
20,1,$1+$1,$8,$9,$2,$3,0*%
G04 Aperture macros list end*
%ADD10R,1.800000X1.800000*%
%ADD11C,1.800000*%
%ADD12R,1.700000X1.700000*%
%ADD13O,1.700000X1.700000*%
%ADD14O,2.720000X3.240000*%
%ADD15C,3.500000*%
%ADD16C,1.320800*%
%ADD17C,1.574800*%
%ADD18R,2.350000X2.350000*%
%ADD19C,2.350000*%
%ADD20C,1.700000*%
%ADD21R,1.500000X1.500000*%
%ADD22C,1.600000*%
%ADD23R,1.500000X1.050000*%
%ADD24O,1.500000X1.050000*%
%ADD25RoundRect,0.102000X-0.990000X-0.990000X0.990000X-0.990000X0.990000X0.990000X-0.990000X0.990000X0*%
%ADD26C,2.184000*%
G04 APERTURE END LIST*
D10*
%TO.C,D3*%
X151600000Y-52800000D03*
D11*
X149060000Y-52800000D03*
%TD*%
D12*
%TO.C,J24*%
X178800000Y-56740000D03*
D13*
X178800000Y-54200000D03*
X178800000Y-51660000D03*
%TD*%
D14*
%TO.C,RV1*%
X184000000Y-102975000D03*
X174400000Y-102975000D03*
D10*
X181700000Y-95475000D03*
D11*
X179200000Y-95475000D03*
X176700000Y-95475000D03*
%TD*%
D12*
%TO.C,J17*%
X165225000Y-104350000D03*
D13*
X165225000Y-106890000D03*
%TD*%
D15*
%TO.C,H2*%
X132600000Y-107000000D03*
%TD*%
D12*
%TO.C,J5*%
X135600000Y-90600000D03*
D13*
X133060000Y-90600000D03*
X130520000Y-90600000D03*
%TD*%
D16*
%TO.C,J10*%
X211560001Y-100699999D03*
X211560001Y-91700001D03*
D17*
X209600000Y-94700000D03*
X209600000Y-97700000D03*
%TD*%
D12*
%TO.C,J7*%
X202180000Y-40260000D03*
D13*
X202180000Y-42800000D03*
X199640000Y-40260000D03*
X199640000Y-42800000D03*
X197100000Y-40260000D03*
X197100000Y-42800000D03*
X194560000Y-40260000D03*
X194560000Y-42800000D03*
X192020000Y-40260000D03*
X192020000Y-42800000D03*
X189480000Y-40260000D03*
X189480000Y-42800000D03*
X186940000Y-40260000D03*
X186940000Y-42800000D03*
X184400000Y-40260000D03*
X184400000Y-42800000D03*
X181860000Y-40260000D03*
X181860000Y-42800000D03*
X179320000Y-40260000D03*
X179320000Y-42800000D03*
%TD*%
D16*
%TO.C,J11*%
X211560001Y-86866200D03*
X211560001Y-77866202D03*
D17*
X209600000Y-80866201D03*
X209600000Y-83866201D03*
%TD*%
D18*
%TO.C,D1*%
X205155000Y-70605001D03*
D19*
X210235000Y-70605001D03*
X210235000Y-65525001D03*
X205155000Y-65525001D03*
%TD*%
D16*
%TO.C,J9*%
X138400001Y-45560001D03*
X150399997Y-45560001D03*
D17*
X147399998Y-43600000D03*
X144399999Y-43600000D03*
X141400000Y-43600000D03*
%TD*%
D12*
%TO.C,J13*%
X156400000Y-65740000D03*
D13*
X156400000Y-63200000D03*
%TD*%
D20*
%TO.C,SW2*%
X170900000Y-98700000D03*
X163900000Y-93700000D03*
X170900000Y-93700000D03*
X163900000Y-98700000D03*
%TD*%
D21*
%TO.C,SW1*%
X150912500Y-91687500D03*
D22*
X150912500Y-94227500D03*
X150912500Y-89147500D03*
%TD*%
D12*
%TO.C,J4*%
X135600000Y-69800000D03*
D13*
X133060000Y-69800000D03*
X130520000Y-69800000D03*
%TD*%
D12*
%TO.C,J6*%
X135600000Y-85400000D03*
D13*
X133060000Y-85400000D03*
X130520000Y-85400000D03*
%TD*%
D20*
%TO.C,U2*%
X174400000Y-57510000D03*
X174400000Y-54970000D03*
X174400000Y-52430000D03*
X174400000Y-49890000D03*
X174400000Y-47350000D03*
X174400000Y-44810000D03*
X174400000Y-42270000D03*
X174400000Y-39730000D03*
X156400000Y-39810000D03*
X156400000Y-42350000D03*
X156400000Y-44890000D03*
X156400000Y-47430000D03*
X156400000Y-49970000D03*
X156400000Y-52510000D03*
X156400000Y-55050000D03*
X156400000Y-57590000D03*
%TD*%
D12*
%TO.C,J14*%
X149800000Y-79200000D03*
D13*
X149800000Y-76660000D03*
X149800000Y-74120000D03*
X149800000Y-71580000D03*
%TD*%
D12*
%TO.C,J18*%
X170000000Y-104400000D03*
D13*
X170000000Y-106940000D03*
%TD*%
D12*
%TO.C,J1*%
X135600000Y-95800000D03*
D13*
X133060000Y-95800000D03*
X130520000Y-95800000D03*
%TD*%
D12*
%TO.C,J23*%
X144310000Y-57650000D03*
D20*
X144310000Y-55150000D03*
X142310000Y-55150000D03*
X142310000Y-57650000D03*
D15*
X139600000Y-62420000D03*
X139600000Y-50380000D03*
%TD*%
D23*
%TO.C,Q3-B1*%
X199800000Y-70630001D03*
D24*
X199800000Y-69360001D03*
X199800000Y-68090001D03*
%TD*%
D12*
%TO.C,J15*%
X196400000Y-95000000D03*
D13*
X196400000Y-97540000D03*
X196400000Y-100080000D03*
X196400000Y-102620000D03*
%TD*%
D12*
%TO.C,J20*%
X141720000Y-107400000D03*
D13*
X144260000Y-107400000D03*
X146800000Y-107400000D03*
X149340000Y-107400000D03*
X151880000Y-107400000D03*
X154420000Y-107400000D03*
X156960000Y-107400000D03*
X159500000Y-107400000D03*
%TD*%
D12*
%TO.C,J21*%
X202800000Y-89925000D03*
D13*
X202800000Y-92465000D03*
X202800000Y-95005000D03*
X202800000Y-97545000D03*
X202800000Y-100085000D03*
X202800000Y-102625000D03*
X202800000Y-105165000D03*
X202800000Y-107705000D03*
%TD*%
D15*
%TO.C,H4*%
X209400000Y-42600000D03*
%TD*%
D12*
%TO.C,J19*%
X141720000Y-101200000D03*
D13*
X144260000Y-101200000D03*
X146800000Y-101200000D03*
X149340000Y-101200000D03*
X151880000Y-101200000D03*
X154420000Y-101200000D03*
X156960000Y-101200000D03*
X159500000Y-101200000D03*
%TD*%
D23*
%TO.C,Q2-G1*%
X199800000Y-64830001D03*
D24*
X199800000Y-63560001D03*
X199800000Y-62290001D03*
%TD*%
D15*
%TO.C,H3*%
X209400000Y-107000000D03*
%TD*%
D12*
%TO.C,J22*%
X190400000Y-89925000D03*
D13*
X190400000Y-92465000D03*
X190400000Y-95005000D03*
X190400000Y-97545000D03*
X190400000Y-100085000D03*
X190400000Y-102625000D03*
X190400000Y-105165000D03*
X190400000Y-107705000D03*
%TD*%
D16*
%TO.C,J8*%
X213000000Y-48400000D03*
X198000000Y-48400000D03*
D17*
X201000001Y-50360001D03*
X204000000Y-50360001D03*
X207000000Y-50360001D03*
X209999999Y-50360001D03*
%TD*%
D10*
%TO.C,D2*%
X166800000Y-64600000D03*
D11*
X164260000Y-64600000D03*
%TD*%
D15*
%TO.C,H1*%
X132600000Y-42600000D03*
%TD*%
D23*
%TO.C,Q1-R1*%
X199840000Y-59030001D03*
D24*
X199840000Y-57760001D03*
X199840000Y-56490001D03*
%TD*%
D12*
%TO.C,J2*%
X135600000Y-75000000D03*
D13*
X133060000Y-75000000D03*
X130520000Y-75000000D03*
%TD*%
D12*
%TO.C,J16*%
X178800000Y-78660000D03*
D13*
X178800000Y-81200000D03*
X178800000Y-83740000D03*
%TD*%
D12*
%TO.C,J3*%
X135600000Y-80200000D03*
D13*
X133060000Y-80200000D03*
X130520000Y-80200000D03*
%TD*%
D12*
%TO.C,J12*%
X178800000Y-69075000D03*
D13*
X178800000Y-66535000D03*
%TD*%
D25*
%TO.C,Q4*%
X194320000Y-80400000D03*
D26*
X196860000Y-80400000D03*
X199400000Y-80400000D03*
%TD*%
M02*
