%TF.GenerationSoftware,KiCad,Pcbnew,8.0.4*%
%TF.CreationDate,2025-04-25T16:49:28-07:00*%
%TF.ProjectId,DalekSoundSystemV2,44616c65-6b53-46f7-956e-645379737465,rev?*%
%TF.SameCoordinates,Original*%
%TF.FileFunction,Soldermask,Top*%
%TF.FilePolarity,Negative*%
%FSLAX46Y46*%
G04 Gerber Fmt 4.6, Leading zero omitted, Abs format (unit mm)*
G04 Created by KiCad (PCBNEW 8.0.4) date 2025-04-25 16:49:28*
%MOMM*%
%LPD*%
G01*
G04 APERTURE LIST*
G04 Aperture macros list*
%AMRoundRect*
0 Rectangle with rounded corners*
0 $1 Rounding radius*
0 $2 $3 $4 $5 $6 $7 $8 $9 X,Y pos of 4 corners*
0 Add a 4 corners polygon primitive as box body*
4,1,4,$2,$3,$4,$5,$6,$7,$8,$9,$2,$3,0*
0 Add four circle primitives for the rounded corners*
1,1,$1+$1,$2,$3*
1,1,$1+$1,$4,$5*
1,1,$1+$1,$6,$7*
1,1,$1+$1,$8,$9*
0 Add four rect primitives between the rounded corners*
20,1,$1+$1,$2,$3,$4,$5,0*
20,1,$1+$1,$4,$5,$6,$7,0*
20,1,$1+$1,$6,$7,$8,$9,0*
20,1,$1+$1,$8,$9,$2,$3,0*%
G04 Aperture macros list end*
%ADD10RoundRect,0.155000X-0.212500X-0.155000X0.212500X-0.155000X0.212500X0.155000X-0.212500X0.155000X0*%
%ADD11R,0.508000X0.955600*%
%ADD12RoundRect,0.155000X0.040659X0.259862X-0.259862X-0.040659X-0.040659X-0.259862X0.259862X0.040659X0*%
%ADD13RoundRect,0.155000X0.259862X-0.040659X-0.040659X0.259862X-0.259862X0.040659X0.040659X-0.259862X0*%
%ADD14R,1.800000X1.800000*%
%ADD15C,1.800000*%
%ADD16R,1.700000X1.700000*%
%ADD17O,1.700000X1.700000*%
%ADD18RoundRect,0.160000X-0.222500X-0.160000X0.222500X-0.160000X0.222500X0.160000X-0.222500X0.160000X0*%
%ADD19O,2.720000X3.240000*%
%ADD20RoundRect,0.237500X-0.237500X0.250000X-0.237500X-0.250000X0.237500X-0.250000X0.237500X0.250000X0*%
%ADD21C,3.500000*%
%ADD22C,1.320800*%
%ADD23C,1.574800*%
%ADD24R,2.350000X2.350000*%
%ADD25C,2.350000*%
%ADD26RoundRect,0.155000X0.212500X0.155000X-0.212500X0.155000X-0.212500X-0.155000X0.212500X-0.155000X0*%
%ADD27C,1.700000*%
%ADD28R,1.500000X1.500000*%
%ADD29C,1.600000*%
%ADD30RoundRect,0.237500X-0.250000X-0.237500X0.250000X-0.237500X0.250000X0.237500X-0.250000X0.237500X0*%
%ADD31RoundRect,0.155000X-0.259862X0.040659X0.040659X-0.259862X0.259862X-0.040659X-0.040659X0.259862X0*%
%ADD32R,1.500000X1.050000*%
%ADD33O,1.500000X1.050000*%
%ADD34RoundRect,0.155000X-0.040659X-0.259862X0.259862X0.040659X0.040659X0.259862X-0.259862X-0.040659X0*%
%ADD35RoundRect,0.160000X-0.270468X0.044194X0.044194X-0.270468X0.270468X-0.044194X-0.044194X0.270468X0*%
%ADD36RoundRect,0.237500X0.237500X-0.250000X0.237500X0.250000X-0.237500X0.250000X-0.237500X-0.250000X0*%
%ADD37RoundRect,0.075000X-0.441942X-0.548008X0.548008X0.441942X0.441942X0.548008X-0.548008X-0.441942X0*%
%ADD38RoundRect,0.075000X0.441942X-0.548008X0.548008X-0.441942X-0.441942X0.548008X-0.548008X0.441942X0*%
%ADD39RoundRect,0.102000X-0.990000X-0.990000X0.990000X-0.990000X0.990000X0.990000X-0.990000X0.990000X0*%
%ADD40C,2.184000*%
G04 APERTURE END LIST*
D10*
%TO.C,C11*%
X148477300Y-59263600D03*
X149612300Y-59263600D03*
%TD*%
D11*
%TO.C,U3*%
X148249999Y-64755600D03*
X149200000Y-64755600D03*
X150150001Y-64755600D03*
X150150001Y-62200000D03*
X148249999Y-62200000D03*
%TD*%
D12*
%TO.C,C5*%
X173401283Y-81398717D03*
X172598717Y-82201283D03*
%TD*%
D13*
%TO.C,C7*%
X161001283Y-88201283D03*
X160198717Y-87398717D03*
%TD*%
D14*
%TO.C,D3*%
X151600000Y-52800000D03*
D15*
X149060000Y-52800000D03*
%TD*%
D16*
%TO.C,J24*%
X178800000Y-56740000D03*
D17*
X178800000Y-54200000D03*
X178800000Y-51660000D03*
%TD*%
D18*
%TO.C,L1*%
X148472300Y-60601100D03*
X149617300Y-60601100D03*
%TD*%
D19*
%TO.C,RV1*%
X184000000Y-102975000D03*
X174400000Y-102975000D03*
D14*
X181700000Y-95475000D03*
D15*
X179200000Y-95475000D03*
X176700000Y-95475000D03*
%TD*%
D16*
%TO.C,J17*%
X165225000Y-104350000D03*
D17*
X165225000Y-106890000D03*
%TD*%
D20*
%TO.C,R2*%
X204962725Y-55447501D03*
X204962725Y-57272501D03*
%TD*%
D21*
%TO.C,H2*%
X132600000Y-107000000D03*
%TD*%
D16*
%TO.C,J5*%
X135600000Y-90600000D03*
D17*
X133060000Y-90600000D03*
X130520000Y-90600000D03*
%TD*%
D22*
%TO.C,J10*%
X211560001Y-100699999D03*
X211560001Y-91700001D03*
D23*
X209600000Y-94700000D03*
X209600000Y-97700000D03*
%TD*%
D16*
%TO.C,J7*%
X202180000Y-40260000D03*
D17*
X202180000Y-42800000D03*
X199640000Y-40260000D03*
X199640000Y-42800000D03*
X197100000Y-40260000D03*
X197100000Y-42800000D03*
X194560000Y-40260000D03*
X194560000Y-42800000D03*
X192020000Y-40260000D03*
X192020000Y-42800000D03*
X189480000Y-40260000D03*
X189480000Y-42800000D03*
X186940000Y-40260000D03*
X186940000Y-42800000D03*
X184400000Y-40260000D03*
X184400000Y-42800000D03*
X181860000Y-40260000D03*
X181860000Y-42800000D03*
X179320000Y-40260000D03*
X179320000Y-42800000D03*
%TD*%
D22*
%TO.C,J11*%
X211560001Y-86866200D03*
X211560001Y-77866202D03*
D23*
X209600000Y-80866201D03*
X209600000Y-83866201D03*
%TD*%
D24*
%TO.C,D1*%
X205155000Y-70605001D03*
D25*
X210235000Y-70605001D03*
X210235000Y-65525001D03*
X205155000Y-65525001D03*
%TD*%
D22*
%TO.C,J9*%
X138400001Y-45560001D03*
X150399997Y-45560001D03*
D23*
X147399998Y-43600000D03*
X144399999Y-43600000D03*
X141400000Y-43600000D03*
%TD*%
D16*
%TO.C,J13*%
X156400000Y-65740000D03*
D17*
X156400000Y-63200000D03*
%TD*%
D26*
%TO.C,C10*%
X149367500Y-66351100D03*
X148232500Y-66351100D03*
%TD*%
D27*
%TO.C,SW2*%
X170900000Y-98700000D03*
X163900000Y-93700000D03*
X170900000Y-93700000D03*
X163900000Y-98700000D03*
%TD*%
D28*
%TO.C,SW1*%
X150912500Y-91687500D03*
D29*
X150912500Y-94227500D03*
X150912500Y-89147500D03*
%TD*%
D16*
%TO.C,J4*%
X135600000Y-69800000D03*
D17*
X133060000Y-69800000D03*
X130520000Y-69800000D03*
%TD*%
D30*
%TO.C,R5*%
X204687500Y-62960001D03*
X206512500Y-62960001D03*
%TD*%
D16*
%TO.C,J6*%
X135600000Y-85400000D03*
D17*
X133060000Y-85400000D03*
X130520000Y-85400000D03*
%TD*%
D27*
%TO.C,U2*%
X174400000Y-57510000D03*
X174400000Y-54970000D03*
X174400000Y-52430000D03*
X174400000Y-49890000D03*
X174400000Y-47350000D03*
X174400000Y-44810000D03*
X174400000Y-42270000D03*
X174400000Y-39730000D03*
X156400000Y-39810000D03*
X156400000Y-42350000D03*
X156400000Y-44890000D03*
X156400000Y-47430000D03*
X156400000Y-49970000D03*
X156400000Y-52510000D03*
X156400000Y-55050000D03*
X156400000Y-57590000D03*
%TD*%
D16*
%TO.C,J14*%
X149800000Y-79200000D03*
D17*
X149800000Y-76660000D03*
X149800000Y-74120000D03*
X149800000Y-71580000D03*
%TD*%
D12*
%TO.C,C1*%
X168001283Y-87298717D03*
X167198717Y-88101283D03*
%TD*%
D31*
%TO.C,C9*%
X160003536Y-90603536D03*
X160806102Y-91406102D03*
%TD*%
D16*
%TO.C,J18*%
X170000000Y-104400000D03*
D17*
X170000000Y-106940000D03*
%TD*%
D16*
%TO.C,J1*%
X135600000Y-95800000D03*
D17*
X133060000Y-95800000D03*
X130520000Y-95800000D03*
%TD*%
D16*
%TO.C,J23*%
X144310000Y-57650000D03*
D27*
X144310000Y-55150000D03*
X142310000Y-55150000D03*
X142310000Y-57650000D03*
D21*
X139600000Y-62420000D03*
X139600000Y-50380000D03*
%TD*%
D32*
%TO.C,Q3-B1*%
X199800000Y-70630001D03*
D33*
X199800000Y-69360001D03*
X199800000Y-68090001D03*
%TD*%
D16*
%TO.C,J15*%
X196400000Y-95000000D03*
D17*
X196400000Y-97540000D03*
X196400000Y-100080000D03*
X196400000Y-102620000D03*
%TD*%
D34*
%TO.C,C3*%
X156198717Y-78001283D03*
X157001283Y-77198717D03*
%TD*%
D35*
%TO.C,FB1*%
X160000000Y-88800000D03*
X160809638Y-89609638D03*
%TD*%
D16*
%TO.C,J20*%
X141720000Y-107400000D03*
D17*
X144260000Y-107400000D03*
X146800000Y-107400000D03*
X149340000Y-107400000D03*
X151880000Y-107400000D03*
X154420000Y-107400000D03*
X156960000Y-107400000D03*
X159500000Y-107400000D03*
%TD*%
D12*
%TO.C,C6*%
X168801283Y-88098717D03*
X167998717Y-88901283D03*
%TD*%
D30*
%TO.C,R8*%
X164487500Y-60200000D03*
X166312500Y-60200000D03*
%TD*%
D16*
%TO.C,J21*%
X202800000Y-89925000D03*
D17*
X202800000Y-92465000D03*
X202800000Y-95005000D03*
X202800000Y-97545000D03*
X202800000Y-100085000D03*
X202800000Y-102625000D03*
X202800000Y-105165000D03*
X202800000Y-107705000D03*
%TD*%
D21*
%TO.C,H4*%
X209400000Y-42600000D03*
%TD*%
D16*
%TO.C,J19*%
X141720000Y-101200000D03*
D17*
X144260000Y-101200000D03*
X146800000Y-101200000D03*
X149340000Y-101200000D03*
X151880000Y-101200000D03*
X154420000Y-101200000D03*
X156960000Y-101200000D03*
X159500000Y-101200000D03*
%TD*%
D31*
%TO.C,C2*%
X166598717Y-71398717D03*
X167401283Y-72201283D03*
%TD*%
D36*
%TO.C,R3*%
X207550000Y-57272501D03*
X207550000Y-55447501D03*
%TD*%
D30*
%TO.C,R6*%
X208687500Y-62960001D03*
X210512500Y-62960001D03*
%TD*%
D32*
%TO.C,Q2-G1*%
X199800000Y-64830001D03*
D33*
X199800000Y-63560001D03*
X199800000Y-62290001D03*
%TD*%
D13*
%TO.C,C8*%
X159006102Y-89606102D03*
X158203536Y-88803536D03*
%TD*%
D21*
%TO.C,H3*%
X209400000Y-107000000D03*
%TD*%
D16*
%TO.C,J22*%
X190400000Y-89925000D03*
D17*
X190400000Y-92465000D03*
X190400000Y-95005000D03*
X190400000Y-97545000D03*
X190400000Y-100085000D03*
X190400000Y-102625000D03*
X190400000Y-105165000D03*
X190400000Y-107705000D03*
%TD*%
D22*
%TO.C,J8*%
X213000000Y-48400000D03*
X198000000Y-48400000D03*
D23*
X201000001Y-50360001D03*
X204000000Y-50360001D03*
X207000000Y-50360001D03*
X209999999Y-50360001D03*
%TD*%
D14*
%TO.C,D2*%
X166800000Y-64600000D03*
D15*
X164260000Y-64600000D03*
%TD*%
D30*
%TO.C,R9*%
X149347500Y-57400000D03*
X151172500Y-57400000D03*
%TD*%
D21*
%TO.C,H1*%
X132600000Y-42600000D03*
%TD*%
D36*
%TO.C,R4*%
X210057091Y-57272501D03*
X210057091Y-55447501D03*
%TD*%
D13*
%TO.C,C4*%
X156801283Y-80201283D03*
X155998717Y-79398717D03*
%TD*%
D32*
%TO.C,Q1-R1*%
X199840000Y-59030001D03*
D33*
X199840000Y-57760001D03*
X199840000Y-56490001D03*
%TD*%
D16*
%TO.C,J2*%
X135600000Y-75000000D03*
D17*
X133060000Y-75000000D03*
X130520000Y-75000000D03*
%TD*%
D16*
%TO.C,J16*%
X178800000Y-78660000D03*
D17*
X178800000Y-81200000D03*
X178800000Y-83740000D03*
%TD*%
D20*
%TO.C,R1*%
X153312500Y-88775000D03*
X153312500Y-90600000D03*
%TD*%
D16*
%TO.C,J3*%
X135600000Y-80200000D03*
D17*
X133060000Y-80200000D03*
X130520000Y-80200000D03*
%TD*%
D37*
%TO.C,U1*%
X158135519Y-81161181D03*
X158489072Y-81514734D03*
X158842625Y-81868287D03*
X159196179Y-82221841D03*
X159549732Y-82575394D03*
X159903286Y-82928948D03*
X160256839Y-83282501D03*
X160610392Y-83636054D03*
X160963946Y-83989608D03*
X161317499Y-84343161D03*
X161671052Y-84696714D03*
X162024606Y-85050268D03*
X162378159Y-85403821D03*
X162731713Y-85757375D03*
X163085266Y-86110928D03*
X163438819Y-86464481D03*
D38*
X166161181Y-86464481D03*
X166514734Y-86110928D03*
X166868287Y-85757375D03*
X167221841Y-85403821D03*
X167575394Y-85050268D03*
X167928948Y-84696714D03*
X168282501Y-84343161D03*
X168636054Y-83989608D03*
X168989608Y-83636054D03*
X169343161Y-83282501D03*
X169696714Y-82928948D03*
X170050268Y-82575394D03*
X170403821Y-82221841D03*
X170757375Y-81868287D03*
X171110928Y-81514734D03*
X171464481Y-81161181D03*
D37*
X171464481Y-78438819D03*
X171110928Y-78085266D03*
X170757375Y-77731713D03*
X170403821Y-77378159D03*
X170050268Y-77024606D03*
X169696714Y-76671052D03*
X169343161Y-76317499D03*
X168989608Y-75963946D03*
X168636054Y-75610392D03*
X168282501Y-75256839D03*
X167928948Y-74903286D03*
X167575394Y-74549732D03*
X167221841Y-74196179D03*
X166868287Y-73842625D03*
X166514734Y-73489072D03*
X166161181Y-73135519D03*
D38*
X163438819Y-73135519D03*
X163085266Y-73489072D03*
X162731713Y-73842625D03*
X162378159Y-74196179D03*
X162024606Y-74549732D03*
X161671052Y-74903286D03*
X161317499Y-75256839D03*
X160963946Y-75610392D03*
X160610392Y-75963946D03*
X160256839Y-76317499D03*
X159903286Y-76671052D03*
X159549732Y-77024606D03*
X159196179Y-77378159D03*
X158842625Y-77731713D03*
X158489072Y-78085266D03*
X158135519Y-78438819D03*
%TD*%
D16*
%TO.C,J12*%
X178800000Y-69075000D03*
D17*
X178800000Y-66535000D03*
%TD*%
D39*
%TO.C,Q4*%
X194320000Y-80400000D03*
D40*
X196860000Y-80400000D03*
X199400000Y-80400000D03*
%TD*%
D30*
%TO.C,R7*%
X206687500Y-73360001D03*
X208512500Y-73360001D03*
%TD*%
M02*
